<svg width="571" height="751" xmlns="http://www.w3.org/2000/svg"><g transform="rotate(-70 387.2 343.5)" fill="none" fill-rule="evenodd" opacity=".3"><circle fill="#D6D6D6" cx="476.5" cy="279.2" r="5.5"/><circle fill="#D6D6D6" cx="511.7" cy="259.1" r="5.5"/><circle fill="#D6D6D6" cx="476.8" cy="322.5" r="5.5"/><circle fill="#D6D6D6" cx="511.4" cy="337.2" r="5.5"/><circle fill="#D6D6D6" cx="546.2" cy="320.7" r="5.5"/><circle fill="#D6D6D6" cx="545.4" cy="279.6" r="5.5"/><circle fill="#D6D6D6" cx="599.5" cy="264.9" r="5.5"/><circle fill="#D6D6D6" cx="547.2" cy="364.6" r="5.5"/><circle fill="#D6D6D6" cx="581.2" cy="380.1" r="5.5"/><circle fill="#D6D6D6" cx="616.7" cy="364.2" r="5.5"/><circle fill="#D6D6D6" cx="615.8" cy="321.7" r="5.5"/><circle fill="#D6D6D6" cx="425" cy="379.5" r="5.5"/><circle fill="#D6D6D6" cx="459.4" cy="358.8" r="5.5"/><circle fill="#D6D6D6" cx="425.1" cy="421.4" r="5.5"/><circle fill="#D6D6D6" cx="424.6" cy="286.6" r="5.5"/><circle fill="#D6D6D6" cx="424.8" cy="328.5" r="5.5"/><circle fill="#D6D6D6" cx="459.9" cy="437.5" r="5.5"/><circle fill="#D6D6D6" cx="494.6" cy="421" r="5.5"/><circle fill="#D6D6D6" cx="493.1" cy="379.3" r="5.5"/><circle fill="#D6D6D6" cx="494.6" cy="421" r="5.5"/><circle fill="#D6D6D6" cx="494.9" cy="464.3" r="5.5"/><circle fill="#D6D6D6" cx="529.6" cy="480.4" r="5.5"/><circle fill="#D6D6D6" cx="564.4" cy="463.9" r="5.5"/><circle fill="#D6D6D6" cx="563.5" cy="421.4" r="5.5"/><circle fill="#D6D6D6" cx="504" cy="25.5" r="5.5"/><circle fill="#D6D6D6" cx="538.5" cy="6.2" r="5.5"/><circle fill="#D6D6D6" cx="503.5" cy="68.2" r="5.5"/><circle fill="#D6D6D6" cx="538.3" cy="84.3" r="5.5"/><circle fill="#D6D6D6" cx="573.7" cy="67" r="5.5"/><circle fill="#D6D6D6" cx="572.1" cy="25.3" r="5.5"/><circle fill="#D6D6D6" cx="625.6" cy="11.3" r="5.5"/><circle fill="#D6D6D6" cx="573.9" cy="110.3" r="5.5"/><circle fill="#D6D6D6" cx="608" cy="127.2" r="5.5"/><circle fill="#D6D6D6" cx="643.4" cy="109.9" r="5.5"/><circle fill="#D6D6D6" cx="642.5" cy="67.4" r="5.5"/><circle fill="#D6D6D6" cx="451.7" cy="125.2" r="5.5"/><circle fill="#D6D6D6" cx="486.9" cy="105.1" r="5.5"/><circle fill="#D6D6D6" cx="451.2" cy="167.9" r="5.5"/><circle fill="#D6D6D6" cx="452.1" cy="32.9" r="5.5"/><circle fill="#D6D6D6" cx="451.6" cy="75.5" r="5.5"/><circle fill="#D6D6D6" cx="485.9" cy="184" r="5.5"/><circle fill="#D6D6D6" cx="522.1" cy="167.3" r="5.5"/><circle fill="#D6D6D6" cx="520.6" cy="125.6" r="5.5"/><circle fill="#D6D6D6" cx="522.1" cy="167.3" r="5.5"/><circle fill="#D6D6D6" cx="521.6" cy="210" r="5.5"/><circle fill="#D6D6D6" cx="556.3" cy="226.1" r="5.5"/><circle fill="#D6D6D6" cx="591.1" cy="209.6" r="5.5"/><circle fill="#D6D6D6" cx="590.2" cy="167" r="5.5"/><circle fill="#D6D6D6" cx="58.3" cy="326.4" r="5.5"/><circle fill="#D6D6D6" cx="92.8" cy="307.1" r="5.5"/><circle fill="#D6D6D6" cx="58.6" cy="369.7" r="5.5"/><circle fill="#D6D6D6" cx="92.6" cy="385.2" r="5.5"/><circle fill="#D6D6D6" cx="128.1" cy="369.3" r="5.5"/><circle fill="#D6D6D6" cx="127.2" cy="326.8" r="5.5"/><circle fill="#D6D6D6" cx="180.6" cy="312.9" r="5.5"/><circle fill="#D6D6D6" cx="128.3" cy="412.6" r="5.5"/><circle fill="#D6D6D6" cx="163.1" cy="428.7" r="5.5"/><circle fill="#D6D6D6" cx="197.9" cy="412.2" r="5.5"/><circle fill="#D6D6D6" cx="197" cy="369.7" r="5.5"/><circle fill="#D6D6D6" cx="6.8" cy="426.8" r="5.5"/><circle fill="#D6D6D6" cx="40.5" cy="406.8" r="5.5"/><circle fill="#D6D6D6" cx="6.2" cy="469.4" r="5.5"/><circle fill="#D6D6D6" cx="5.8" cy="334.6" r="5.5"/><circle fill="#D6D6D6" cx="6.7" cy="377.1" r="5.5"/><circle fill="#D6D6D6" cx="41" cy="485.5" r="5.5"/><circle fill="#D6D6D6" cx="76.5" cy="469.7" r="5.5"/><circle fill="#D6D6D6" cx="74.9" cy="426.5" r="5.5"/><circle fill="#D6D6D6" cx="76.5" cy="469.7" r="5.5"/><circle fill="#D6D6D6" cx="76" cy="512.3" r="5.5"/><circle fill="#D6D6D6" cx="110.8" cy="528.4" r="5.5"/><circle fill="#D6D6D6" cx="145.5" cy="511.9" r="5.5"/><circle fill="#D6D6D6" cx="144.7" cy="469.4" r="5.5"/><circle fill="#D6D6D6" transform="matrix(-1 0 0 1 292.7 0)" cx="146.3" cy="83.1" r="5.5"/><circle fill="#D6D6D6" transform="matrix(-1 0 0 1 224 0)" cx="112" cy="63.4" r="5.5"/><circle fill="#D6D6D6" transform="matrix(-1 0 0 1 293.2 0)" cx="146.6" cy="126.4" r="5.5"/><circle fill="#D6D6D6" transform="matrix(-1 0 0 1 223.4 0)" cx="111.7" cy="141.5" r="5.5"/><circle fill="#D6D6D6" transform="matrix(-1 0 0 1 153.9 0)" cx="76.9" cy="125.4" r="5.5"/><circle fill="#D6D6D6" transform="matrix(-1 0 0 1 156.5 0)" cx="78.2" cy="83.4" r="5.5"/><circle fill="#D6D6D6" transform="matrix(-1 0 0 1 49 0)" cx="24.5" cy="69.6" r="5.5"/><circle fill="#D6D6D6" transform="matrix(-1 0 0 1 151.5 0)" cx="75.8" cy="168.8" r="5.5"/><circle fill="#D6D6D6" transform="matrix(-1 0 0 1 83.3 0)" cx="41.7" cy="184.5" r="5.5"/><circle fill="#D6D6D6" transform="matrix(-1 0 0 1 13.8 0)" cx="6.9" cy="168.4" r="5.5"/><circle fill="#D6D6D6" transform="matrix(-1 0 0 1 14.8 0)" cx="7.4" cy="125.8" r="5.5"/><circle fill="#D6D6D6" transform="matrix(-1 0 0 1 396.7 0)" cx="198.4" cy="182.9" r="5.5"/><circle fill="#D6D6D6" transform="matrix(-1 0 0 1 328 0)" cx="164" cy="163.2" r="5.5"/><circle fill="#D6D6D6" transform="matrix(-1 0 0 1 397.2 0)" cx="198.6" cy="226.2" r="5.5"/><circle fill="#D6D6D6" transform="matrix(-1 0 0 1 396.3 0)" cx="198.2" cy="91.3" r="5.5"/><circle fill="#D6D6D6" transform="matrix(-1 0 0 1 396.6 0)" cx="198.3" cy="133.2" r="5.5"/><circle fill="#D6D6D6" transform="matrix(-1 0 0 1 327.5 0)" cx="163.7" cy="241.3" r="5.5"/><circle fill="#D6D6D6" transform="matrix(-1 0 0 1 256.6 0)" cx="128.3" cy="225.9" r="5.5"/><circle fill="#D6D6D6" transform="matrix(-1 0 0 1 260.5 0)" cx="130.3" cy="183.2" r="5.5"/><circle fill="#D6D6D6" transform="matrix(-1 0 0 1 256.6 0)" cx="128.3" cy="225.9" r="5.5"/><circle fill="#D6D6D6" transform="matrix(-1 0 0 1 255.6 0)" cx="127.8" cy="268.6" r="5.5"/><circle fill="#D6D6D6" transform="matrix(-1 0 0 1 187.4 0)" cx="93.7" cy="284.3" r="5.5"/><circle fill="#D6D6D6" transform="matrix(-1 0 0 1 117.8 0)" cx="58.9" cy="268.2" r="5.5"/><circle fill="#D6D6D6" transform="matrix(-1 0 0 1 118.9 0)" cx="59.4" cy="225.6" r="5.5"/><circle fill="#D6D6D6" cx="274.5" cy="347.3" r="5.5"/><circle fill="#D6D6D6" cx="309" cy="327.9" r="5.5"/><circle fill="#D6D6D6" cx="274.7" cy="390.6" r="5.5"/><circle fill="#D6D6D6" cx="308.8" cy="406" r="5.5"/><circle fill="#D6D6D6" cx="343.5" cy="389.5" r="5.5"/><circle fill="#D6D6D6" cx="342.6" cy="347" r="5.5"/><circle fill="#D6D6D6" cx="396.1" cy="333.1" r="5.5"/><circle fill="#D6D6D6" cx="344.5" cy="433.4" r="5.5"/><circle fill="#D6D6D6" cx="378.5" cy="448.9" r="5.5"/><circle fill="#D6D6D6" cx="414" cy="433" r="5.5"/><circle fill="#D6D6D6" cx="412.4" cy="389.9" r="5.5"/><circle fill="#D6D6D6" cx="223" cy="447.6" r="5.5"/><circle fill="#D6D6D6" cx="256.7" cy="427.6" r="5.5"/><circle fill="#D6D6D6" cx="222.4" cy="490.2" r="5.5"/><circle fill="#D6D6D6" cx="222.6" cy="354.7" r="5.5"/><circle fill="#D6D6D6" cx="222.1" cy="397.3" r="5.5"/><circle fill="#D6D6D6" cx="257.2" cy="506.4" r="5.5"/><circle fill="#D6D6D6" cx="292" cy="489.8" r="5.5"/><circle fill="#D6D6D6" cx="291.1" cy="447.3" r="5.5"/><circle fill="#D6D6D6" cx="292" cy="489.8" r="5.5"/><circle fill="#D6D6D6" cx="292.2" cy="533.1" r="5.5"/><circle fill="#D6D6D6" cx="327" cy="549.2" r="5.5"/><circle fill="#D6D6D6" cx="362.4" cy="532" r="5.5"/><circle fill="#D6D6D6" cx="360.8" cy="490.2" r="5.5"/><circle fill="#D6D6D6" transform="matrix(-1 0 0 1 725 0)" cx="362.5" cy="103.9" r="5.5"/><circle fill="#D6D6D6" transform="matrix(-1 0 0 1 656.3 0)" cx="328.2" cy="84.2" r="5.5"/><circle fill="#D6D6D6" transform="matrix(-1 0 0 1 724 0)" cx="362" cy="146.6" r="5.5"/><circle fill="#D6D6D6" transform="matrix(-1 0 0 1 655.8 0)" cx="327.9" cy="162.3" r="5.5"/><circle fill="#D6D6D6" transform="matrix(-1 0 0 1 584.7 0)" cx="292.4" cy="145.6" r="5.5"/><circle fill="#D6D6D6" transform="matrix(-1 0 0 1 587.3 0)" cx="293.6" cy="103.6" r="5.5"/><circle fill="#D6D6D6" transform="matrix(-1 0 0 1 479.8 0)" cx="239.9" cy="89.8" r="5.5"/><circle fill="#D6D6D6" transform="matrix(-1 0 0 1 583.9 0)" cx="291.9" cy="189.6" r="5.5"/><circle fill="#D6D6D6" transform="matrix(-1 0 0 1 515.7 0)" cx="257.8" cy="205.4" r="5.5"/><circle fill="#D6D6D6" transform="matrix(-1 0 0 1 444.6 0)" cx="222.3" cy="188.6" r="5.5"/><circle fill="#D6D6D6" transform="matrix(-1 0 0 1 447.2 0)" cx="223.6" cy="146.6" r="5.5"/><circle fill="#D6D6D6" transform="matrix(-1 0 0 1 829.1 0)" cx="414.6" cy="203.7" r="5.5"/><circle fill="#D6D6D6" transform="matrix(-1 0 0 1 760.4 0)" cx="380.2" cy="184" r="5.5"/><circle fill="#D6D6D6" transform="matrix(-1 0 0 1 828 0)" cx="414" cy="246.3" r="5.5"/><circle fill="#D6D6D6" transform="matrix(-1 0 0 1 828.5 0)" cx="414.2" cy="110.8" r="5.5"/><circle fill="#D6D6D6" transform="matrix(-1 0 0 1 829 0)" cx="414.5" cy="154" r="5.5"/><circle fill="#D6D6D6" transform="matrix(-1 0 0 1 759.8 0)" cx="379.9" cy="262.1" r="5.5"/><circle fill="#D6D6D6" transform="matrix(-1 0 0 1 687.5 0)" cx="343.7" cy="246.1" r="5.5"/><circle fill="#D6D6D6" transform="matrix(-1 0 0 1 691.4 0)" cx="345.7" cy="203.4" r="5.5"/><circle fill="#D6D6D6" transform="matrix(-1 0 0 1 687.5 0)" cx="343.7" cy="246.1" r="5.5"/><circle fill="#D6D6D6" transform="matrix(-1 0 0 1 688 0)" cx="344" cy="289.4" r="5.5"/><circle fill="#D6D6D6" transform="matrix(-1 0 0 1 619.7 0)" cx="309.9" cy="305.1" r="5.5"/><circle fill="#D6D6D6" transform="matrix(-1 0 0 1 548.7 0)" cx="274.3" cy="288.4" r="5.5"/><circle fill="#D6D6D6" transform="matrix(-1 0 0 1 551.2 0)" cx="275.6" cy="246.4" r="5.5"/><path d="M513.4 259l32 19M546.6 279.3l-68-1-1 43.9 35.5 17.1-32.5-58.5" stroke="#D6D6D6" stroke-width="2"/><path stroke="#D6D6D6" stroke-width="1.5" d="M545.8 278l2 41.8-36 19.2M511.6 336.3l35-58"/><path d="M598.8 264.6l17 57M616.4 322.2l-68-1-1 43.8 35.5 17.2-32.5-58.5" stroke="#D6D6D6" stroke-width="2"/><path stroke="#D6D6D6" stroke-width="1.5" d="M615.5 320.9l2 41.8-36 19.2M581.3 379.1l35-58"/><path d="M461 358.7l32 19M494.3 379l-68-1-1 43.9 35.5 17-32.5-58.4" stroke="#D6D6D6" stroke-width="2"/><path stroke="#D6D6D6" stroke-width="1.5" d="M493.5 377.7l2 41.8-36 19.2M459.3 436l35-58"/><path d="M546.5 364.2l17 57M564.7 421.1l-68-1-1 43.9 35.5 17.1-32.5-58.5" stroke="#D6D6D6" stroke-width="2"/><path stroke="#D6D6D6" stroke-width="1.5" d="M563.2 420.6l2 41.8-36 19.2M529 478.8l35-58M494.6 377.9l56-14M476.7 277.8l-51.5 50.5 54-7-19.7 37.5-34.8 19-1.5-47.5"/><path stroke="#D6D6D6" stroke-width="1.5" d="M598.5 263.7L547 321.2l.5-46.5 51-11-87-4.5-86.5 25-.5 44M475.7 278.3l37-18M493.8 377l20.5-43.3 34.5 30.6-53 55.4M581 379.9L564 421.7l55-58M566 463.3l52-99M491.6 465.1l-35-28"/><path d="M539.5 5.4l32 19M573.3 25l-68-1-1 43.8L539.8 85l-32.5-58.5" stroke="#D6D6D6" stroke-width="2"/><path stroke="#D6D6D6" stroke-width="1.5" d="M572.6 25l2 42-36 19M537.7 82.7l35-58"/><path d="M624.9 11l17 57M643.1 67.9l-68-1-1 43.8 35.5 17.2-32.5-58.5" stroke="#D6D6D6" stroke-width="2"/><path stroke="#D6D6D6" stroke-width="1.5" d="M643 67.2l2 41.8-36 19.2M608 124.8l35-58"/><path d="M488.6 105l32 19M521.8 125.3l-68-1-1 43.9 35.5 17.1-32.5-58.5" stroke="#D6D6D6" stroke-width="2"/><path stroke="#D6D6D6" stroke-width="1.5" d="M521 124l2 41.9-36 19.1M486 181.6l35-58"/><path d="M573.2 110l17 57M591.6 168.2l-68-1-1 43.8 35.5 17.2-32.5-58.5" stroke="#D6D6D6" stroke-width="2"/><path stroke="#D6D6D6" stroke-width="1.5" d="M590.7 166.9l2 41.8-36 19.2M555.8 224.5l35-58M522 124.2l56-14M504.1 24.2l-51.4 50.5 54-7-19.7 37.5-34.8 19-1.5-47.5"/><path stroke="#D6D6D6" stroke-width="1.5" d="M624.6 10.1L573 67.6l.5-46.5 51-11-87-4.5-86.5 25-.5 44M501.8 24.8l37-18M519.9 123.4L540.4 80l34.5 30.7-53 55.3M607.8 125.6l-17.2 41.8 55-58M592.7 209l52-99M519.1 211.4l-35-28"/><path d="M94.6 307l32 19M127.8 327.3l-68-1-1 43.9 35.5 17.1-32.5-58.5" stroke="#D6D6D6" stroke-width="2"/><path stroke="#D6D6D6" stroke-width="1.5" d="M127.7 326.6l2 41.9-36 19.1M92.7 384.3l35-58"/><path d="M180 312.6l17 57M198.2 369.4l-68-1-1 43.9 35.5 17.1-32.5-58.5" stroke="#D6D6D6" stroke-width="2"/><path stroke="#D6D6D6" stroke-width="1.5" d="M197.5 369.5l2 41.9-36 19.1M162.5 427.1l35-58"/><path d="M42.2 406.7l32 19M75.5 427l-68-1-1 43.9 35.5 17-32.5-58.4" stroke="#D6D6D6" stroke-width="2"/><path stroke="#D6D6D6" stroke-width="1.5" d="M75.4 426.3l2 41.9-36 19.1M40.4 484l35-58"/><path d="M127.6 412.3l17 57M145.9 469.1l-68-1-1 43.9 35.5 17.1-32.5-58.5" stroke="#D6D6D6" stroke-width="2"/><path stroke="#D6D6D6" stroke-width="1.5" d="M145.1 469.2l2 41.9-36 19.1M110.8 526l35-58M76.5 426.5l56-14M57.3 325.4L6.7 375.9l53-7-19.3 37.5-34.2 19-1.5-47.5"/><path stroke="#D6D6D6" stroke-width="1.5" d="M179.6 311.7l-51.5 57.5.5-46.5 51-11-87-4.5-86.5 25-.5 44M56.9 326.3l37-18M75 425l20.5-43.3 34.5 30.6-53 55.4M162.2 427.9L145 469.7l55-58M147.2 511.3l52-99M73.4 512.3l-35-28"/><path d="M110.2 63.5l-32 19M76.5 83.7l68-1 1 43.9-35.5 17.1 32.5-58.5" stroke="#D6D6D6" stroke-width="2"/><path stroke="#D6D6D6" stroke-width="1.5" d="M77.3 82.7l-2 41.8 36 19.2M112 140L77 82"/><path d="M24.4 68.6l-17 57M7 126l68-1 1 43.8L40.7 186 73 127.5" stroke="#D6D6D6" stroke-width="2"/><path stroke="#D6D6D6" stroke-width="1.5" d="M7.2 125.7l-2 41.8 36 19.2M42 183L7 125"/><path d="M162.2 163.3l-32 19M128.5 183.5l68-1 1 43.9-35.5 17.1 32.5-58.5" stroke="#D6D6D6" stroke-width="2"/><path stroke="#D6D6D6" stroke-width="1.5" d="M129.3 182.5l-2 41.8 36 19.2M164 239.8l-35-58"/><path d="M76.5 168.4l-17 57M58.4 225.1l68-1 1 43.9L91.9 285l32.5-58.5" stroke="#D6D6D6" stroke-width="2"/><path stroke="#D6D6D6" stroke-width="1.5" d="M59.2 225.5l-2 41.8 36 19.2M94 282.9l-35-58M128.2 182.7l-56-14M146 82.3l51.4 50.5-54-7 19.7 37.5 34.8 19 1.5-47.5"/><path stroke="#D6D6D6" stroke-width="1.5" d="M24.8 68l51.5 57.4-.5-46.5-51-11 87-4.5 86.5 25 .5 44M147.9 83.1l-37-18M129.3 181.5l-20.5-43.2-34.5 30.6 53 55.4M41.6 184l17.1 41.9-55-58M57.9 267.4l-52-99M131.4 269.3l35-28"/><path d="M310.7 327.8l32 19M344 348.1l-68-1-1 43.9 35.5 17.1-32.5-58.4" stroke="#D6D6D6" stroke-width="2"/><path stroke="#D6D6D6" stroke-width="1.5" d="M343.1 346.8l2 41.9-36 19.1M308.2 404.5l35-58"/><path d="M396.1 333.4l17 57M414.4 390.3l-68-1-1 43.8 35.5 17.1-32.5-58.4" stroke="#D6D6D6" stroke-width="2"/><path stroke="#D6D6D6" stroke-width="1.5" d="M412.9 389.7l2 41.9-36 19.1M378 447.3l35-58"/><path d="M258.4 427.5l32 19M292.3 447l-68-1-1 44 35.5 17-32.5-58.4" stroke="#D6D6D6" stroke-width="2"/><path stroke="#D6D6D6" stroke-width="1.5" d="M290.8 446.5l2 41.9-36 19.1M256.6 504.8l35-58"/><path d="M343.8 433l17 57M362 490l-68-1-1 43.8 35.5 17.1-32.5-58.4" stroke="#D6D6D6" stroke-width="2"/><path stroke="#D6D6D6" stroke-width="1.5" d="M361.2 488.6l2 41.9-36 19.1M327 547l35-58M292 446.7l56-14M274 346.7l-51.5 50.5 54-7-19.7 37.5-34.8 19-1.5-47.5"/><path stroke="#D6D6D6" stroke-width="1.5" d="M395.8 332.5L344.3 390l.5-46.5 51-11-87-4.5-86.5 25-.5 44M273 347.2l37-18M291.2 445.8l20.5-43.3 34.5 30.7-53 55.3M378.4 448.7l-17.2 41.9 55-58M363.3 532.2l52-99M289.6 533.2l-35-28"/><path d="M325.6 83.7l-32 19M292.7 104.6l68-1 1 43.8-35.5 17.1 32.5-58.4" stroke="#D6D6D6" stroke-width="2"/><path stroke="#D6D6D6" stroke-width="1.5" d="M293.4 103.5l-2 41.8 36 19.2M328.2 160.9l-35-58"/><path d="M240.6 89.4l-17 57M222.5 146.2l68-1 1 43.8-35.5 17.2 32.5-58.5" stroke="#D6D6D6" stroke-width="2"/><path stroke="#D6D6D6" stroke-width="1.5" d="M223.4 146.5l-2 41.9 36 19.1M258.2 204l-35-58"/><path d="M377.7 183.5l-32 19M344 203.7l68-1 1 43.8-35.6 17.2 32.5-58.5" stroke="#D6D6D6" stroke-width="2"/><path stroke="#D6D6D6" stroke-width="1.5" d="M345.5 203.3l-2 41.8 36 19.2M380.3 260.7l-35-58"/><path d="M292.6 189.2l-17 57M274.5 246l68-1 1 43.8L308 306l32.5-58.5" stroke="#D6D6D6" stroke-width="2"/><path stroke="#D6D6D6" stroke-width="1.5" d="M275.3 245l-2 41.8 36 19.1M310.2 303.7l-35-58M344.4 203.6l-56-14M362.1 103.1l51.5 50.5-54-7 19.7 37.5 34.8 19 1.5-47.5"/><path stroke="#D6D6D6" stroke-width="1.5" d="M241 88.8l51.5 57.5-.5-46.5-51-11 87-4.5 86.5 25 .5 44M363.3 103.3l-37-18M345.4 202.4L325 159l-34.5 30.7 53 55.3M257.8 204.8l17.1 41.9-55-58M273.3 287.6l-52-99M346.9 289.5l35-28M425.5 284.5l-9-42 96 14.5 46.5-31 42.5 39-8.5-55.5"/><path stroke="#D6D6D6" stroke-width="1.5" d="M522.2 208.9l-10 48.1-27.5-76.2-71.5 66.2-16 84.7 27.5-47.1-1 43-11 61.2 11.5-12.5-28-41.6"/><path stroke="#D6D6D6" stroke-width="1.5" d="M396.7 332.3l-53.5-44-35 38-34-37-50 64-26.5 15.5 24 27-23 16.5"/><path stroke="#D6D6D6" stroke-width="1.5" d="M197.5 132l26.6 12.6-24.1 39 22.6 5.5-23.6 38 75.3 62.5-91.9 22.5-18-69"/><path stroke="#D6D6D6" stroke-width="1.5" d="M59.3 267.3L91 308.5l38.7-40.7-2.6 58.8 38.2-85M58 266.9L6.4 333.6M452.8 169.2l-36 34.2 34-77-35 26.7M197.5 225L180.3 314l43 42.1M424 421l-10 12"/><path stroke="#D6D6D6" stroke-width="1.5" d="M182.3 311.6l95-67.8-78.5-16.5 25.5 128"/></g></svg>