<?xml version="1.0" encoding="UTF-8"?>
<svg width="37px" height="37px" viewBox="0 0 37 37" version="1.1" xmlns="http://www.w3.org/2000/svg" xmlns:xlink="http://www.w3.org/1999/xlink">
    <!-- Generator: Sketch 47.1 (45422) - http://www.bohemiancoding.com/sketch -->
    <title>confetti</title>
    <desc>Created with Sketch.</desc>
    <defs></defs>
    <g id="Page-1" stroke="none" stroke-width="1" fill="none" fill-rule="evenodd">
        <g id="Desktop-HD" transform="translate(-706.000000, -930.000000)" fill-rule="nonzero">
            <g id="confetti" transform="translate(706.000000, 930.000000)">
                <path d="M11.5514462,6.49374618 C11.4393336,6.61359035 11.3542462,6.75803529 11.2831641,6.91639811 L11.275141,6.90782169 L0.048675169,33.9402417 L0.059724563,33.9520531 C-0.148454465,34.3832814 0.199847769,35.260634 0.913554166,36.0245371 C1.62620489,36.7863337 2.44695669,37.1587308 2.85036514,36.9361201 L2.86035886,36.946803 L28.1508734,24.9472649 L28.1428502,24.9376353 C28.2909966,24.8627045 28.4250672,24.7718245 28.5382355,24.6508519 C30.1016896,22.9795787 27.5663111,17.5602602 22.8760193,12.5464408 C18.1855164,7.53156806 13.1149003,4.8223978 11.5514462,6.49374618" id="Shape" fill="#F1B61B"></path>
                <path d="M13.743229,11 L0.351796931,31.8138978 L0.0517503174,32.4584264 L0.0634977784,32.4685607 C-0.157833364,32.8785725 0.212473541,33.7099437 0.971269727,34.4346191 C1.21811606,34.6700636 1.47356721,34.8487702 1.72572609,35 L18,16.0750826 L13.743229,11 Z" id="Shape" fill="#DF9406"></path>
                <path d="M22.7075682,12.6436915 C27.4453375,17.6472956 30.0760524,22.9807282 28.580613,24.5572031 C27.0862437,26.1357865 22.0338929,23.359805 17.2930563,18.3583848 C12.5542171,13.3547807 9.92457219,8.02021855 11.4190129,6.4426894 C12.9144522,4.86410601 17.9667316,7.64114166 22.7075682,12.6436915" id="Shape" fill="#974D11"></path>
                <path d="M20.0218534,13.7664423 C19.7989186,13.9365998 19.5076067,14.0253195 19.1995156,13.9936657 C18.2270316,13.8943948 17.4102869,13.5751823 16.8367223,13.0710999 C16.2305445,12.5374443 15.9314338,11.8220397 16.0132816,11.10344 C16.1567319,9.84375427 17.4966249,8.68764912 19.7810366,8.92014819 C20.669467,9.00998244 21.0661018,8.74159426 21.0783908,8.61260148 C21.0940672,8.48472328 20.768094,8.14121315 19.8807664,8.05041294 C18.9071796,7.95114201 18.0904349,7.63192948 17.5167914,7.12784713 C16.9106137,6.59419155 16.6104789,5.87767237 16.6933508,5.16018723 C16.8390068,3.89946122 18.1777969,2.74439634 20.4600029,2.97689541 C21.1076166,3.04347232 21.4481632,2.91670869 21.5927163,2.83534516 C21.7092253,2.76876824 21.7551514,2.70531212 21.7596416,2.66838274 C21.7720094,2.5415448 21.4503689,2.19810898 20.5597327,2.10723446 C19.9457562,2.04385265 19.4998079,1.52282885 19.5670822,0.942658593 C19.6331749,0.362488339 20.1844461,-0.0571096912 20.8006283,0.00634643027 C23.0827555,0.23773093 24.1314942,1.63584613 23.9868623,2.89664645 C23.8423879,4.15633219 22.503519,5.31139708 20.2191073,5.07889801 C19.5714937,5.01232109 19.2332315,5.13908473 19.0875756,5.22044825 C18.9721694,5.28702517 18.9251404,5.35144725 18.9206502,5.38637041 C18.9060767,5.51528888 19.230947,5.8587247 20.1205591,5.94855895 C22.4026863,6.18105802 23.451425,7.57917322 23.3067931,8.83989923 C23.1623188,10.099585 21.822347,11.2556901 19.540141,11.0221508 C18.8925273,10.9566141 18.5519807,11.0823375 18.4063248,11.163701 C18.2909186,11.230278 18.2460953,11.2947 18.2416839,11.3306635 C18.2271104,11.4585417 18.5509566,11.8019775 19.44049,11.8918117 C20.0544665,11.9551936 20.5014388,12.4762174 20.4331404,13.0563876 C20.4005274,13.3469186 20.2448669,13.5963591 20.0218534,13.7664423" id="Shape" fill="#AA8DD8"></path>
                <path d="M30.4386685,23.1825635 C32.1477159,22.5898712 33.3265268,23.5262682 33.6072367,24.7552705 C33.8878856,25.9831507 33.2798129,27.5377522 31.5725926,28.1272274 C30.905625,28.3570622 30.7054921,28.7485743 30.732412,28.8741903 C30.761829,28.9997316 31.1005201,29.2061489 31.7657824,28.9741445 C33.4739162,28.3846693 34.6528489,29.3210663 34.933437,30.5489464 C35.2166439,31.7779487 34.6068658,33.3303058 32.8978794,33.9219507 C32.2318253,34.1517854 32.0307789,34.5444197 32.0602567,34.6689136 C32.088882,34.7934074 32.4266595,34.9987773 33.0927745,34.76999 C33.5527269,34.6104075 34.0316817,34.9402712 34.1616523,35.5052816 C34.2898568,36.0713394 34.0221805,36.6586449 33.5605227,36.8183023 C31.8540943,37.4088249 30.6734562,36.4745976 30.3911629,35.2446226 C30.1105139,34.0167425 30.7194393,32.4642358 32.4293394,31.8726658 C33.0953934,31.6417836 33.2964399,31.2513189 33.266962,31.1257029 C33.2383368,31.0012091 32.9014118,30.7937443 32.2352969,31.0235042 C30.5262495,31.6151491 29.3474387,30.6809218 29.065937,29.4507972 C28.7844354,28.2217948 29.3933608,26.6694378 31.1032,26.0777929 C31.7675487,25.8490056 31.9685342,25.4553238 31.9399699,25.3318774 C31.9105529,25.2052888 31.5744198,24.9987966 30.9074522,25.2296788 C30.4466471,25.3892613 29.9693368,25.0593976 29.839427,24.4933397 C29.7093345,23.9285538 29.9778634,23.3411734 30.4386685,23.1825635" id="Shape" fill="#77B255"></path>
                <path d="M24.0011493,19 C23.7071791,19 23.4172167,18.8750854 23.2191507,18.6367669 C22.8741348,18.2182962 22.9441645,17.6089799 23.3751707,17.2747619 C23.593205,17.1052349 28.7930527,13.1491747 36.1418145,14.1672218 C36.6887635,14.2428244 37.0678099,14.7328792 36.989835,15.2628468 C36.9117899,15.7917927 36.4098399,16.1637439 35.8578988,16.0843271 C29.3650324,15.1911946 24.6712128,18.7520098 24.6251591,18.787904 C24.4401007,18.9312084 24.2200976,19 24.0011493,19" id="Shape" fill="#AA8DD8"></path>
                <path d="M5.58757134,16 C5.4968894,16 5.40432803,15.9850468 5.31263925,15.9551404 C4.80767975,15.7852452 4.52126978,15.1889211 4.67303283,14.6235554 C5.75463823,10.5914548 6.73509064,4.15797752 5.5303162,2.4802149 C5.39479669,2.28995625 5.19242358,2.1029287 4.72652914,2.14245321 C3.83018071,2.21834627 3.91609699,4.33433495 3.91696958,4.35567518 C3.95704147,4.94456024 3.56189371,5.4574771 3.03679757,5.50128468 C2.50317694,5.5375781 2.05164662,5.10378539 2.01345415,4.51490032 C1.91418057,3.04122241 2.32469929,0.202821958 4.58235088,0.011511333 C5.59039047,-0.0739998576 6.42760434,0.318314664 7.01941983,1.1411908 C9.28284392,4.29488559 6.98505332,13.4374445 6.50103591,15.2391157 C6.37712852,15.7019131 5.99809006,16 5.58757134,16" id="Shape" fill="#77B255"></path>
                <path d="M27,9.5 C27,10.3280129 26.3280129,11 25.5,11 C24.6719871,11 24,10.3280129 24,9.5 C24,8.67198706 24.6719871,8 25.5,8 C26.3280129,8 27,8.67198706 27,9.5" id="Shape" fill="#5C913B"></path>
                <path d="M5,18.5 C5,19.8799923 3.88001195,21 2.50004395,21 C1.12007594,21 0,19.8799923 0,18.5 C0,17.1187772 1.11998805,16 2.49995605,16 C3.87992406,16 5,17.1186894 5,18.5" id="Shape" fill="#9266CC"></path>
                <g id="Group" transform="translate(23.000000, 18.000000)" fill="#5C913B">
                    <path d="M12.9662151,1.65164651 C12.9662151,2.528 12.2438837,3.2392186 11.3538372,3.2392186 C10.4637907,3.2392186 9.7414593,2.528 9.7414593,1.65164651 C9.7414593,0.775293023 10.4637907,0.0640744186 11.3538372,0.0640744186 C12.2438837,0.0640744186 12.9662151,0.775293023 12.9662151,1.65164651" id="Shape"></path>
                    <path d="M3.29187209,14.3520744 C3.29187209,15.2284279 2.5695407,15.9396465 1.67949419,15.9396465 C0.789447674,15.9396465 0.0671162791,15.2284279 0.0671162791,14.3520744 C0.0671162791,13.4757209 0.789447674,12.7645023 1.67949419,12.7645023 C2.5695407,12.7644279 3.29187209,13.4756465 3.29187209,14.3520744" id="Shape"></path>
                </g>
                <g id="Group" transform="translate(6.000000, 2.000000)" fill="#FFCC4D">
                    <path d="M24.8327945,2.10373171 C24.8327945,3.25258537 23.9076291,4.185 22.7654361,4.185 C21.6242607,4.185 20.6980777,3.25258537 20.6980777,2.10373171 C20.6980777,0.953853659 21.6242607,0.0224634146 22.7654361,0.0224634146 C23.9076291,0.0223902439 24.8327945,0.953780488 24.8327945,2.10373171" id="Shape"></path>
                    <path d="M28.9675113,6.78658537 C28.9675113,7.6482439 28.2728922,8.34753659 27.4169925,8.34753659 C26.5610927,8.34753659 25.8664737,7.6482439 25.8664737,6.78658537 C25.8664737,5.92492683 26.5610927,5.22563415 27.4169925,5.22563415 C28.2728922,5.22563415 28.9675113,5.92492683 28.9675113,6.78658537" id="Shape"></path>
                    <path d="M25.8664737,10.9491951 C25.8664737,11.8108537 25.1718546,12.5101463 24.3159549,12.5101463 C23.4600551,12.5101463 22.7654361,11.8108537 22.7654361,10.9491951 C22.7654361,10.0875366 23.4600551,9.3882439 24.3159549,9.3882439 C25.1718546,9.3882439 25.8664737,10.0875366 25.8664737,10.9491951" id="Shape"></path>
                    <path d="M3.1252406,22.3963171 C3.1252406,23.2579756 2.43062155,23.9572683 1.5747218,23.9572683 C0.718822055,23.9572683 0.0242030075,23.2579756 0.0242030075,22.3963171 C0.0242030075,21.5346585 0.718822055,20.8353659 1.5747218,20.8353659 C2.43062155,20.8353659 3.1252406,21.5345854 3.1252406,22.3963171" id="Shape"></path>
                </g>
            </g>
        </g>
    </g>
</svg>