<?xml version="1.0" encoding="UTF-8"?>
<svg width="65px" height="69px" viewBox="0 0 65 69" version="1.1" xmlns="http://www.w3.org/2000/svg" xmlns:xlink="http://www.w3.org/1999/xlink">
    <!-- Generator: Sketch 47.1 (45422) - http://www.bohemiancoding.com/sketch -->
    <title>write</title>
    <desc>Created with Sketch.</desc>
    <defs></defs>
    <g id="Page-1" stroke="none" stroke-width="1" fill="none" fill-rule="evenodd">
        <g id="Desktop-HD" transform="translate(-689.000000, -429.000000)" fill-rule="nonzero">
            <g id="write" transform="translate(689.000000, 429.000000)">
                <g id="Group" transform="translate(33.000000, 34.500000) scale(-1, 1) rotate(-180.000000) translate(-33.000000, -34.500000) ">
                    <g id="Shape">
                        <g>
                            <g transform="translate(9.274764, 2.568238)" fill="#EF9645">
                                <path d="M0.0819551887,24.153938 C-0.0676214623,22.3578834 0.697799528,21.8200943 1.89694222,20.9669256 C3.08259434,20.1253995 10.3064552,26.5519876 12.670171,27.5299727 C15.0320318,28.5079578 37.2041144,33.2747792 36.2427429,37.6267444 C35.2815401,41.9805931 28.5795955,42.6235087 23.4202972,41.7352407 C18.2571203,40.8469727 8.38185731,36.2378412 5.49420165,33.7500744 C2.60890684,31.2604243 0.0819551887,24.153938 0.0819551887,24.153938"></path>
                                <path d="M16.6247618,21.2377891 C16.6247618,21.2377891 9.80005307,18.9878412 9.80005307,13.1435583 C9.80005307,7.29927543 11.4615849,4.00131514 12.2501085,2.40387097 C13.0367771,0.806426799 15.4868325,-0.744275434 18.8790354,0.746158809 C22.8160884,2.47800744 17.936888,12.4422581 30.3910413,7.8702804 C36.0951899,5.77613896 42.0143443,2.94371464 47.770263,4.89163772 C53.2307382,6.7404268 55.3335802,13.7143921 55.3335802,17.6105806 C55.3335802,25.583933 49.5776616,23.4546923 47.6589658,21.5067692 C45.74027,19.5586749 30.3910413,15.6626576 28.4723455,15.6626576 C26.5538184,15.6624864 16.6247618,21.2377891 16.6247618,21.2377891"></path>
                            </g>
                            <path d="M34.5103856,13.9701886 C34.5103856,13.9701886 34.2802028,16.533804 31.8723054,16.8318908 C29.8942512,17.0753598 26.7764127,16.4052208 25.1570389,13.1189032 C23.5376651,9.83053102 20.6596215,10.3779082 20.7805307,7.63896774 C20.8994163,4.9000273 21.7398785,2.76890323 23.478138,2.22135484 C25.2163974,1.67397767 27.6742099,2.64802481 27.9755554,5.56999504 C28.2748774,8.49008189 28.6337264,11.1706377 30.492895,12.3258313 C32.351895,13.4832506 34.5103856,13.9701886 34.5103856,13.9701886" fill="#F9CA55"></path>
                            <path d="M31.991191,18.2305533 C31.991191,18.2305533 30.0724953,20.1786476 26.2352724,20.1786476 C22.3980495,20.1786476 13.4492512,16.0234094 16.1623726,7.75984615 C18.0810684,1.91573449 23.5376651,4.65467494 24.3167453,10.4383474 C25.0975118,16.230067 31.991191,18.2305533 31.991191,18.2305533" fill="#EF9645"></path>
                            <path d="M30.0724953,18.2305533 C30.0724953,18.2305533 28.1537995,20.1786476 24.3165767,20.1786476 C20.4793538,20.1786476 14.9440059,17.1981216 14.7232665,8.4902531 C14.5428302,1.3681861 22.457408,4.59406452 22.3978809,10.4383474 C22.3383538,16.2826303 30.0724953,18.2305533 30.0724953,18.2305533" fill="#F9CA55"></path>
                            <path d="M7.04865212,16.2826303 C7.04865212,9.85980893 7.92553892,5.98519355 11.7071132,6.6455732 C17.9792146,7.74032754 15.6001533,15.6338933 21.087441,17.8547345 C25.0744092,19.4657047 30.8763644,19.0801266 36.4751179,15.7059752 C40.1646191,13.4832506 37.7471097,22.1267419 33.9098868,24.0748362 C30.0726639,26.0229305 18.560658,24.0748362 16.6419623,24.0748362 C14.7232665,24.0748362 7.04865212,16.2826303 7.04865212,16.2826303" fill="#EF9645"></path>
                            <path d="M6.74545165,15.9436228 C3.69287382,10.7520149 5.54816392,5.38508189 10.885875,6.54233002 C16.0490519,7.66054094 13.4607182,14.470995 18.5604894,18.2307246 C21.417454,20.3385633 27.5743797,21.0456849 31.4116026,19.0975906 C35.2489941,17.1494963 35.8284139,22.1267419 31.9910224,24.0748362 C28.1536309,26.0229305 15.6057182,24.1234615 13.6909009,24.0027543 C10.0263573,23.770928 6.74545165,15.9436228 6.74545165,15.9436228" fill="#F9CA55"></path>
                            <g fill="#3B88C3">
                                <path d="M15.5252807,12.1643747 C14.2224292,10.6487717 11.95652,10.4910819 10.461934,11.8137246 L10.0877394,12.1469107 C8.5931533,13.4695533 8.43767453,15.7703524 9.7423809,17.2859553 L52.9524953,67.5789082 C54.2553467,69.0963945 56.5231108,69.2542556 58.015842,67.9314417 L58.3900366,67.5963722 C59.8866462,66.2735583 60.0401014,63.9729305 58.73725,62.4573275 L15.5252807,12.1643747 Z"></path>
                                <path d="M17.5820861,14.556603 C13.0539776,9.28709181 1.63235849,-1.04544417 0.185663915,0.234565757 C-1.26103066,1.51645906 7.27124646,14.4086725 11.7973314,19.6781836 C16.3254399,24.9495782 14.9841403,20.734072 16.5824351,19.3177742 C18.1787064,17.9033598 22.108171,19.8242308 17.5820861,14.556603"></path>
                            </g>
                            <path d="M10.2567087,20.1279677 C10.2567087,18.1798734 14.9018479,16.3975161 16.820375,18.3454392 C18.7389021,20.2933623 23.2305861,22.6837072 29.13625,20.1784764 C42.9563231,14.3167295 37.7471097,22.1265707 31.991191,24.074665 C26.2352724,26.0227593 16.6419623,24.074665 14.7232665,24.074665 C12.8045708,24.074665 10.2567087,20.1279677 10.2567087,20.1279677" fill="#EF9645"></path>
                            <path d="M9.34137382,25.9390347 C8.65453538,28.1071414 13.5394693,40.1189628 15.7515849,41.9793945 C18.5375554,44.3209429 29.3165177,47.946268 33.1537406,47.946268 C36.9909634,47.946268 64.6083443,33.8151365 64.6083443,24.0748362 C64.6083443,14.334536 60.7709528,13.1170199 55.254829,11.5955955 C50.8437512,10.3780794 41.6035566,11.1242382 37.5666733,14.9423524 C34.0306274,18.2909926 31.5707913,20.6053176 28.1537995,22.1267419 C21.8184611,24.9475236 17.595408,21.3007965 15.6767123,19.3527022 C11.8393208,15.4565136 4.60989505,19.6624318 10.6383231,26.3266675 C14.9553042,31.0974268 18.7581262,32.5837519 22.3977123,33.8149653 C33.9097182,37.7111538 41.5843325,37.7111538 37.746941,41.6071712 C36.3904646,42.9844318 35.6516875,40.9330943 33.7638514,40.5844988 C29.964908,39.8831985 26.9411663,39.4137246 21.9334682,37.7169752 C20.2048208,37.1326154 12.0121686,31.828005 9.34137382,25.9390347" fill="#FFDC5D"></path>
                            <path d="M22.7739304,37.1754194 C24.8153903,37.9313375 33.714105,39.5753524 38.3438986,41.2039578 C42.0833149,42.5228337 45.3642205,39.9650397 38.267171,37.2533226 C31.4156498,34.6371439 24.2993762,34.851335 19.1112417,32.7590769 C17.1483644,31.968402 15.4465295,34.4638734 22.7739304,37.1754194" fill="#EF9645"></path>
                            <path d="M40.6001958,53.2508784 C40.6001958,53.2508784 29.2264682,40.0138362 24.3951592,34.4306576 C28.7198974,36.2364715 32.5878113,35.8936973 36.2869245,38.1027246 C39.9841828,40.3098685 41.6706722,42.6651141 47.2808927,49.1949454 C49.3626557,51.6203896 40.6001958,53.2508784 40.6001958,53.2508784" fill="#3B88C3"></path>
                        </g>
                    </g>
                </g>
                <path d="M11.6691245,56.5092593 C11.9393947,56.3148148 12.1285839,55.9907407 12.1285839,55.6203704 C12.1285839,55.0648148 11.6871425,54.6111111 11.146602,54.6111111 L11.1015569,54.6111111 L11.1015569,54.1481481 C11.1015569,54.0648148 11.0384938,54 10.9574128,54 C10.8763317,54 10.8132686,54.0648148 10.8132686,54.1481481 L10.8132686,54.6111111 L10.1195749,54.6111111 L10.1195749,54.1481481 C10.1195749,54.0648148 10.0565119,54 9.97543078,54 C9.8943497,54 9.84930466,54.0740741 9.84930466,54.1481481 L9.84930466,54.6111111 L9.2907461,54.6111111 C9.20966502,54.6111111 9.14660196,54.6759259 9.14660196,54.7592593 C9.14660196,54.8425926 9.20966502,54.9074074 9.2907461,54.9074074 L9.84930466,54.9074074 L9.84930466,56.3518519 L9.70516051,56.3518519 C9.62407943,56.3518519 9.56101637,56.4166667 9.56101637,56.5 C9.56101637,56.5833333 9.62407943,56.6481481 9.70516051,56.6481481 L9.84930466,56.6481481 L9.84930466,58.0925926 L9.2907461,58.0925926 C9.20966502,58.0925926 9.14660196,58.1574074 9.14660196,58.2407407 C9.14660196,58.3240741 9.20966502,58.3888889 9.2907461,58.3888889 L9.84930466,58.3888889 L9.84930466,58.8518519 C9.84930466,58.9351852 9.91236772,59 9.9934488,59 C10.0745299,59 10.1375929,58.9351852 10.1375929,58.8518519 L10.1375929,58.3888889 L10.8312866,58.3888889 L10.8312866,58.8518519 C10.8312866,58.9351852 10.8943497,59 10.9754308,59 C11.0565119,59 11.1195749,58.9351852 11.1195749,58.8518519 L11.1195749,58.3888889 L11.16462,58.3888889 C11.7051605,58.3888889 12.146602,57.9351852 12.146602,57.3796296 C12.146602,57.0092593 11.9574128,56.6944444 11.6691245,56.5092593 Z M10.1285839,56.3425926 L10.1285839,54.9074074 L11.146602,54.9074074 C11.5339893,54.9074074 11.8493047,55.2314815 11.8493047,55.6296296 C11.8493047,56.0277778 11.5339893,56.3518519 11.146602,56.3518519 L10.1285839,56.3518519 L10.1285839,56.3425926 Z M11.146602,58.0833333 L10.9574128,58.0833333 L10.1285839,58.0833333 L10.1285839,56.6388889 L11.146602,56.6388889 C11.5339893,56.6388889 11.8493047,56.962963 11.8493047,57.3611111 C11.8493047,57.7592593 11.5339893,58.0833333 11.146602,58.0833333 Z" id="Shape" fill="#FFFFFF" opacity="0.767663043" transform="translate(10.646602, 56.500000) rotate(38.000000) translate(-10.646602, -56.500000) "></path>
            </g>
        </g>
    </g>
</svg>